<?xml version="1.0" standalone="no"?>
<!DOCTYPE svg PUBLIC "-//W3C//DTD SVG 20010904//EN"
 "http://www.w3.org/TR/2001/REC-SVG-20010904/DTD/svg10.dtd">
<svg version="1.0" xmlns="http://www.w3.org/2000/svg"
 width="500.000000pt" height="500.000000pt" viewBox="0 0 500.000000 500.000000"
 preserveAspectRatio="xMidYMid meet">
<metadata>
Created by potrace 1.14, written by Peter Selinger 2001-2017
</metadata>
<g transform="translate(0.000000,500.000000) scale(0.100000,-0.100000)"
fill="#000000" stroke="none">
<path d="M0 2500 l0 -2500 2500 0 2500 0 0 2500 0 2500 -2500 0 -2500 0 0
-2500z m2535 1929 c20 -59 15 -100 -22 -173 -26 -52 -32 -98 -20 -151 l8 -30
-40 41 c-60 63 -62 96 -12 193 23 44 44 101 48 126 3 25 9 45 14 45 4 0 15
-23 24 -51z m287 -260 c177 -37 341 -190 373 -349 8 -40 7 -38 -52 40 -75 99
-209 193 -383 266 -49 21 -90 42 -90 46 0 12 91 10 152 -3z m-609 -48 c-119
-96 -195 -199 -240 -328 -26 -74 -27 -88 -27 -248 1 -157 3 -179 31 -285 17
-63 34 -124 38 -135 6 -16 3 -16 -14 5 -38 44 -130 243 -151 324 -27 108 -27
252 0 332 50 145 197 297 345 357 65 26 70 20 18 -22z m293 -160 c43 -26 57
-74 52 -176 -5 -90 -25 -139 -69 -164 -22 -12 -29 -12 -54 0 -95 46 -113 243
-29 327 37 37 57 40 100 13z m210 -435 c87 -41 141 -89 177 -155 29 -52 67
-185 67 -233 0 -15 4 -28 9 -28 15 0 98 131 136 213 19 41 48 115 65 163 27
83 30 86 30 47 0 -95 -46 -266 -97 -352 -25 -44 -169 -201 -184 -201 -4 0 -10
33 -14 73 -22 221 -105 374 -258 478 -49 33 -56 40 -32 35 17 -4 62 -22 101
-40z m-447 -101 c-100 -256 -71 -452 98 -667 81 -102 82 -105 15 -58 -75 52
-184 165 -211 217 -86 170 -61 341 77 530 25 35 47 61 49 60 1 -2 -11 -39 -28
-82z m672 -929 c168 -127 359 -195 686 -245 269 -42 408 -121 444 -254 30
-112 -15 -308 -104 -449 l-42 -67 3 147 c6 256 -29 383 -122 437 -24 14 -144
56 -267 94 -393 122 -486 160 -566 234 -56 51 -129 157 -108 157 2 0 36 -24
76 -54z m-827 7 c-100 -159 -230 -226 -664 -343 -175 -47 -256 -85 -305 -143
-61 -71 -70 -115 -69 -349 0 -115 -1 -208 -2 -208 -10 0 -103 188 -125 253
-69 199 -41 334 88 433 77 59 145 78 442 124 139 22 302 70 387 113 27 14 96
55 153 91 58 36 107 64 109 62 2 -3 -4 -17 -14 -33z m-121 -634 c95 -20 86
-28 -31 -29 -226 0 -384 -58 -529 -194 l-33 -30 9 30 c36 126 144 214 284 234
72 10 225 4 300 -11z m733 -75 c110 -22 232 -67 372 -137 68 -33 125 -64 127
-67 2 -4 -35 8 -83 26 -118 44 -292 81 -444 95 -207 19 -410 -9 -769 -106 -90
-24 -165 -42 -168 -40 -8 8 242 123 346 158 86 30 226 65 323 80 64 10 228 6
296 -9z m-243 -536 c-28 -49 -191 -210 -258 -255 -81 -55 -166 -96 -251 -123
l-71 -23 -92 39 c-50 21 -91 41 -91 44 0 3 41 15 90 27 187 47 432 155 597
263 48 32 89 59 91 59 2 1 -5 -13 -15 -31z m197 -32 c166 -109 386 -208 580
-261 l85 -23 -66 -31 c-100 -47 -149 -50 -238 -13 -132 56 -210 110 -321 221
-93 94 -168 189 -129 165 8 -5 48 -31 89 -58z"/>
</g>
</svg>
